
<svg width="19px" height="19px" viewBox="0 0 19 19" version="1.1" xmlns="http://www.w3.org/2000/svg" xmlns:xlink="http://www.w3.org/1999/xlink">
    <defs>
        <path d="M196.5,11.41625 C195.35125,11.41625 194.416875,12.35125 194.416875,13.5 C194.416875,14.64875 195.35125,15.583125 196.5,15.583125 C197.64875,15.583125 198.583125,14.64875 198.583125,13.5 C198.583125,12.35125 197.64875,11.41625 196.5,11.41625 M196.5,16.208125 C195.00625,16.208125 193.791875,14.99375 193.791875,13.5 C193.791875,12.00625 195.00625,10.79125 196.5,10.79125 C197.99375,10.79125 199.208125,12.00625 199.208125,13.5 C199.208125,14.99375 197.99375,16.208125 196.5,16.208125 M195.754375,20.375 L197.245625,20.375 C197.4825,19.685 197.663125,18.843125 198.5625,18.46875 C199.4975,18.083125 200.22875,18.59125 200.834375,18.88875 L201.888125,17.83375 C201.570625,17.179375 201.096875,16.459375 201.47,15.558125 C201.824375,14.7025 202.556875,14.51875 203.375,14.24625 L203.375,12.75375 C202.603125,12.490625 201.830625,12.31125 201.470625,11.4425 C201.113125,10.58 201.50625,9.945625 201.88875,9.165625 L200.834375,8.111875 C200.13625,8.45375 199.44625,8.8975 198.558125,8.529375 C197.699375,8.1725 197.523125,7.445625 197.245625,6.625 L195.754375,6.625 C195.489375,7.394375 195.314375,8.1675 194.4425,8.52875 C194.214375,8.624375 193.99375,8.67 193.769375,8.67 C193.2425,8.67 192.8075,8.425 192.165625,8.111875 L191.11125,9.165625 C191.47,9.9 191.893125,10.56375 191.529375,11.4425 C191.1725,12.301875 190.445625,12.47625 189.625,12.75375 L189.625,14.24625 C190.39125,14.5075 191.1675,14.686875 191.529375,15.5575 C191.8925,16.434375 191.4825,17.0775 191.11125,17.834375 L192.165625,18.88875 C193.071875,18.435625 193.6375,18.13625 194.441875,18.470625 C195.303125,18.828125 195.47625,19.556875 195.754375,20.375 M197.688125,21 L195.31125,21 C194.885625,19.80125 194.820625,19.304375 194.203125,19.048125 C193.575,18.78625 193.12125,19.130625 192.036875,19.643125 L190.35625,17.9625 C190.901875,16.814375 191.210625,16.421875 190.951875,15.796875 C190.694375,15.1775 190.206875,15.1175 189,14.68875 L189,12.31125 C190.19125,11.8875 190.695,11.8225 190.951875,11.203125 C191.20875,10.58375 190.9075,10.195 190.35625,9.036875 L192.036875,7.356875 C193.125,7.874375 193.578125,8.21 194.2025,7.9525 C194.8225,7.695 194.87875,7.211875 195.311875,6 L197.688125,6 C198.114375,7.19875 198.180625,7.69625 198.796875,7.951875 C199.4225,8.211875 199.865,7.8775 200.96375,7.356875 L202.643125,9.036875 C202.094375,10.19125 201.7925,10.585 202.048125,11.2025 C202.305,11.8225 202.793125,11.881875 204,12.31125 L204,14.689375 C202.80875,15.1125 202.304375,15.178125 202.0475,15.7975 C201.795625,16.406875 202.075,16.773125 202.64375,17.9625 L200.96375,19.643125 C199.88375,19.130625 199.421875,18.786875 198.80375,19.04625 C198.18625,19.3025 198.12875,19.7625 197.688125,21" id="path-1"></path>
        <filter x="-20.0%" y="-20.0%" width="140.0%" height="140.0%" filterUnits="objectBoundingBox" id="filter-2">
            <feOffset dx="0" dy="0" in="SourceAlpha" result="shadowOffsetOuter1"></feOffset>
            <feGaussianBlur stdDeviation="1" in="shadowOffsetOuter1" result="shadowBlurOuter1"></feGaussianBlur>
            <feColorMatrix values="0 0 0 0 0.329411765   0 0 0 0 0.396078431   0 0 0 0 0.345098039  0 0 0 1 0" type="matrix" in="shadowBlurOuter1"></feColorMatrix>
        </filter>
    </defs>
    <g id="Page-1" stroke="none" stroke-width="1" fill="none" fill-rule="evenodd">
        <g id="Desktop-HD-Copy-5" transform="translate(-236.000000, -253.000000)">
            <g id="tab-copy-7" transform="translate(49.000000, 249.000000)">
                <g id="Shape">
                    <use fill="black" fill-opacity="1" filter="url(#filter-2)" xlink:href="#path-1"></use>
                    <use fill="#262626" fill-rule="evenodd" xlink:href="#path-1"></use>
                </g>
            </g>
        </g>
    </g>
</svg>